<svg t="1572862125999" class="icon" viewBox="0 0 1024 1024" version="1.1" xmlns="http://www.w3.org/2000/svg" p-id="4717" width="200" height="200"><path d="M530.618182 365.381818h202.472727c6.981818 0 11.636364-6.981818 11.636364-11.636363 0-6.981818-6.981818-11.636364-11.636364-11.636364h-202.472727c-6.981818 0-11.636364 6.981818-11.636364 11.636364s6.981818 11.636364 11.636364 11.636363zM530.618182 439.854545h202.472727c6.981818 0 11.636364-6.981818 11.636364-11.636363 0-6.981818-6.981818-11.636364-11.636364-11.636364h-202.472727c-6.981818 0-11.636364 6.981818-11.636364 11.636364 0 6.981818 6.981818 11.636364 11.636364 11.636363zM651.636364 493.381818h-121.018182c-6.981818 0-11.636364 6.981818-11.636364 11.636364 0 6.981818 6.981818 11.636364 11.636364 11.636363H651.636364c6.981818 0 11.636364-6.981818 11.636363-11.636363 0-6.981818-6.981818-11.636364-11.636363-11.636364zM456.145455 567.854545l-104.727273-158.254545c18.618182-30.254545 18.618182-69.818182 0-100.072727-20.945455-32.581818-60.509091-51.2-100.072727-41.890909-4.654545 0-6.981818 4.654545-9.309091 6.981818-4.654545 2.327273-4.654545 6.981818 0 11.636363l30.254545 48.872728-27.927273 18.618182L214.109091 302.545455c-2.327273-4.654545-6.981818-6.981818-11.636364-6.981819s-6.981818 2.327273-11.636363 4.654546C165.236364 332.8 162.909091 377.018182 186.181818 409.6c18.618182 30.254545 55.854545 48.872727 90.763637 44.218182l100.072727 162.909091c4.654545 6.981818 11.636364 11.636364 18.618182 13.963636h6.981818c6.981818 0 11.636364-2.327273 18.618182-4.654545l25.6-16.290909c6.981818-4.654545 11.636364-11.636364 13.963636-18.618182 0-6.981818-2.327273-16.290909-4.654545-23.272728zM807.563636 728.436364c-4.654545-4.654545-11.636364-4.654545-16.290909 0-2.327273 2.327273-4.654545 4.654545-9.309091 6.981818-18.618182 11.636364-41.890909 11.636364-60.509091 0-2.327273-2.327273-4.654545-4.654545-9.30909-6.981818-4.654545-4.654545-11.636364-4.654545-16.29091 0-2.327273 2.327273-4.654545 4.654545-4.654545 9.309091 0 2.327273 2.327273 6.981818 4.654545 9.30909 4.654545 4.654545 6.981818 6.981818 11.636364 9.309091l13.963636 6.981819c25.6 9.309091 51.2 6.981818 72.145455-6.981819 4.654545-2.327273 9.309091-6.981818 11.636364-9.309091 6.981818-4.654545 6.981818-11.636364 2.327272-18.618181z m-74.472727-86.109091c2.327273-2.327273 6.981818-2.327273 9.309091-2.327273h18.618182c2.327273 0 6.981818 2.327273 9.309091 2.327273 6.981818 2.327273 13.963636 0 16.290909-6.981818 2.327273-2.327273 2.327273-6.981818 0-9.309091l-6.981818-6.981819c-4.654545-2.327273-9.309091-2.327273-13.963637-4.654545-4.654545 0-9.309091-2.327273-13.963636-2.327273-4.654545 0-9.309091 0-16.290909 2.327273-4.654545 0-9.309091 2.327273-13.963637 4.654545l-6.981818 6.981819c-2.327273 2.327273-2.327273 6.981818 0 9.309091 4.654545 6.981818 11.636364 9.309091 18.618182 6.981818zM940.218182 870.4l-6.981818 6.981818c-6.981818 6.981818-16.290909 6.981818-23.272728 0l-83.781818-83.781818c-4.654545-4.654545-4.654545-11.636364 0-16.290909l11.636364-11.636364c4.654545-4.654545 11.636364-4.654545 16.290909 0l83.781818 83.781818c9.309091 6.981818 9.309091 16.290909 2.327273 20.945455z" p-id="4718"></path><path d="M756.363636 558.545455c-74.472727 0-134.981818 60.509091-134.981818 134.981818s60.509091 134.981818 134.981818 134.981818c74.472727 0 134.981818-60.509091 134.981819-134.981818S830.836364 558.545455 756.363636 558.545455z m0 230.4c-53.527273 0-95.418182-41.890909-95.418181-95.418182s41.890909-95.418182 95.418181-95.418182 95.418182 41.890909 95.418182 95.418182-41.890909 95.418182-95.418182 95.418182z" p-id="4719"></path><path d="M593.454545 705.163636h-418.90909c-23.272727 0-41.890909-18.618182-41.89091-41.890909V237.381818c0-23.272727 18.618182-41.890909 41.89091-41.890909h602.763636c23.272727 0 41.890909 18.618182 41.890909 41.890909v304.872727c18.618182 6.981818 37.236364 18.618182 53.527273 34.909091V237.381818c2.327273-53.527273-41.890909-95.418182-95.418182-95.418182H174.545455c-53.527273 0-95.418182 41.890909-95.418182 95.418182v428.218182c0 53.527273 41.890909 95.418182 95.418182 95.418182H605.090909c-6.981818-18.618182-11.636364-37.236364-11.636364-55.854546z" p-id="4720"></path></svg>